<?xml version="1.0" encoding="utf-8"?>
<!-- Generator: Adobe Illustrator 16.0.0, SVG Export Plug-In . SVG Version: 6.00 Build 0)  -->
<!DOCTYPE svg PUBLIC "-//W3C//DTD SVG 1.1//EN" "http://www.w3.org/Graphics/SVG/1.1/DTD/svg11.dtd">
<svg version="1.1" id="Layer_1" xmlns="http://www.w3.org/2000/svg" xmlns:xlink="http://www.w3.org/1999/xlink" x="0px" y="0px"
	 width="954.312px" height="129px" viewBox="0 0 954.312 129" enable-background="new 0 0 954.312 129" xml:space="preserve">
<path fill="#F38320" d="M59.126,84.248c0,0,0.506-18.975-9.912-27.761c0,0,9.407-8.433,8.513-27.325c0,0,0.35-24.512-27.056-26.512
	H0v111h33.704C33.704,113.65,60.409,115.152,59.126,84.248 M21,21.029c16,0,16.327,11.622,16.327,11.622
	C37.327,49.134,21,45.985,21,45.985V21.029z M38.726,81.904C38.376,97.646,21,94.732,21,94.732V66.859
	C41,66.859,38.726,81.904,38.726,81.904z"/>
<path fill="#F38320" d="M119.468,94.945l-0.011-47.211c0,0-0.076-19.592-26.434-19.592c-26.354,0-26.441,18.12-26.441,18.12v47.886
	c0,0,0.087,21.133,26.21,21.133C119.381,115.281,119.468,94.945,119.468,94.945 M100.347,50.067l-0.005,42.216
	c0,0-0.266,5.947-7.381,5.947c-7.812,0-7.379-5.947-7.379-5.947V50.067c0,0-0.2-5.015,7.379-5.015
	C100.076,45.052,100.347,50.067,100.347,50.067z"/>
<path fill="#F38320" d="M180.446,94.945l-0.031-47.211c0,0,0.372-19.592-25.986-19.592c-26.354,0-26.223,18.12-26.223,18.12v47.886
	c0,0-0.131,21.133,25.992,21.133C180.787,115.281,180.446,94.945,180.446,94.945 M161.534,50.067l-0.004,42.216
	c0,0-0.048,5.947-7.163,5.947c-7.812,0-7.161-5.947-7.161-5.947V50.067c0,0-0.418-5.015,7.161-5.015
	C161.482,45.052,161.534,50.067,161.534,50.067z"/>
<path fill="#3C81C3" d="M370.83,94.945l-0.349-47.211c0,0,0.163-19.592-26.194-19.592c-26.354,0-26.54,18.12-26.54,18.12v47.886
	c0,0,0.186,21.133,26.309,21.133C370.645,115.281,370.83,94.945,370.83,94.945 M351.71,50.067l-0.005,42.216
	c0,0-0.365,5.947-7.48,5.947c-7.812,0-7.478-5.947-7.478-5.947V50.067c0,0-0.101-5.015,7.478-5.015
	C351.34,45.052,351.71,50.067,351.71,50.067z"/>
<path fill="#F38320" d="M189.747,30.373v83.277h18V52.76c0,0,15-12.944,15-1.05v61.94h17V53.11c0,0,13-13.819,13-1.4
	c0,12.42,0,61.94,0,61.94h19V40.691c0,0,0.178-11.545-12.811-11.545c0,0-10.952-1.198-19.147,6.997c0,0-11.042-16.268-31.042-1.05
	V30.37L189.747,30.373"/>
<polyline fill="#3C81C3" points="264.703,20.65 264.703,2.65 324.703,2.65 324.703,20.65 305.703,20.65 305.703,113.65 
	284.703,113.65 284.703,20.65 264.703,20.65 "/>
<polyline fill="#3C81C3" points="375.333,30.65 391.345,113.65 407.357,113.65 413.457,75.379 420.573,113.65 437.856,113.65 
	452.343,30.65 433.79,30.65 427.944,68.266 421.336,30.65 406.594,30.65 400.113,68.838 393.886,30.65 375.333,30.65 "/>
<path fill="#3C81C3" d="M459.791,30.65v83h20V53.249c0,0,13-13.398,13-1.552v61.954h19V41.813c0,0,0.062-12.771-14.256-12.771
	c0,0-10.744-0.224-18.744,7.243V30.65H459.791"/>
<polyline fill="#3C81C3" points="526.125,0.374 530.494,89.816 541.875,87.145 545.458,0.353 526.125,0.374 "/>
<polyline fill="#3C81C3" points="552.573,113.635 542.161,98.324 530.567,100.992 518.927,113.617 520.711,114.869 523.657,114.539 
	523.668,121.203 535.791,128.646 549.562,123.922 549.562,114.922 552.573,113.635 "/>
<g>
	<path fill="#FFFFFF" d="M836.892,63.499c0-9.682-7.041-16.196-16.899-16.196c-11.619,0-20.421,10.034-20.421,22.356
		c0,9.683,7.041,16.195,16.9,16.195C828.09,85.679,836.892,75.646,836.892,63.499 M781.615,70.717
		c0-21.478,16.725-38.554,39.257-38.554c19.013,0,33.624,11.971,33.624,30.104c0,21.476-16.724,38.729-39.257,38.729
		C796.402,100.995,781.615,89.025,781.615,70.717 M902.38,99.763l-0.88-41.722l-17.956,38.905c-0.704,1.584-2.466,2.641-4.226,2.641
		h-15.14l-4.05-61.614c-0.176-2.641,1.938-4.929,4.577-4.929h13.908l0.352,44.363l19.893-41.723c0.705-1.584,2.466-2.64,4.226-2.64
		h10.034l1.585,44.363l18.66-41.546c0.705-1.76,2.465-2.816,4.226-2.816h16.724l-32.392,63.903
		c-0.881,1.584-2.465,2.641-4.225,2.641H902.38V99.763z M750.104,99.763l-19.365-39.609l-8.802,39.609H704.86l13.907-62.846
		c0.528-2.113,2.289-3.697,4.577-3.697h13.907l18.484,37.85l8.451-37.85h17.252l-13.908,62.847
		c-0.527,2.112-2.288,3.696-4.576,3.696H750.104L750.104,99.763z M680.391,28.466L651.695,2.588
		c-1.936-1.761-4.929-1.937-7.041-0.528l-44.363,28.519c-2.641,1.761-4.4,4.401-5.104,7.394L582.863,93.25
		c-0.881,3.696,1.937,7.217,5.809,7.217h59.855l11.442,25.879c1.056,2.288,4.401,1.937,4.929-0.528l19.189-85.909
		C684.967,35.684,683.559,31.283,680.391,28.466z M611.559,69.131c-4.05,0-7.219-2.64-7.219-6.512c0-4.577,3.521-8.274,8.451-8.274
		c4.049,0,7.217,2.641,7.217,6.514C620.008,65.435,616.487,69.131,611.559,69.131z M633.916,69.131c-4.049,0-7.219-2.64-7.219-6.512
		c0-4.577,3.521-8.274,8.451-8.274c4.049,0,7.217,2.641,7.217,6.514C642.365,65.435,638.845,69.131,633.916,69.131z M656.625,69.131
		c-4.049,0-7.218-2.64-7.218-6.512c0-4.577,3.521-8.274,8.45-8.274c4.049,0,7.218,2.641,7.218,6.514
		C665.075,65.435,661.555,69.131,656.625,69.131z"/>
	<path fill="#C9C7C7" d="M665.955,100.291h-17.604l3.873,8.627"/>
</g>
</svg>
