<svg id="artwork" xmlns="http://www.w3.org/2000/svg" viewBox="0 0 150 44.4"><style>.st0{fill:#A6A6A6;} .st1{fill:#FFFFFF;stroke:#FFFFFF;stroke-width:0.2222;stroke-miterlimit:10;} .st2{fill:#FFFFFF;} .st3{fill:url(#SVGID_1_);} .st4{fill:url(#SVGID_2_);} .st5{fill:url(#SVGID_3_);} .st6{fill:url(#SVGID_4_);} .st7{opacity:0.2;enable-background:new ;} .st8{opacity:0.12;enable-background:new ;} .st9{opacity:0.25;fill:#FFFFFF;enable-background:new ;}</style><path d="M144.4 44.4H5.6C2.5 44.4 0 42 0 38.9V5.6C0 2.5 2.5 0 5.6 0h138.9c3.1 0 5.6 2.5 5.6 5.6v33.3c-.1 3.1-2.6 5.5-5.7 5.5z"/><path class="st0" d="M144.4.9c2.6 0 4.6 2.1 4.7 4.7v33.3c0 2.6-2.1 4.6-4.7 4.7H5.6C3 43.6 1 41.5.9 38.9V5.6C.9 3 3 .9 5.6.9h138.8m0-.9H5.6C2.5 0 0 2.5 0 5.6v33.3c0 3.1 2.5 5.6 5.6 5.6h138.9c3.1 0 5.6-2.5 5.6-5.6V5.6c-.1-3.1-2.6-5.6-5.7-5.6z"/><path class="st1" d="M52.7 11.3c.1.8-.2 1.6-.8 2.2-1.3 1.4-3.5 1.4-4.9 0-.7-.7-1-1.5-1-2.5 0-1.9 1.5-3.4 3.4-3.4h.1c.5 0 .9.1 1.3.3.4.2.7.4 1 .8l-.6.6c-.4-.5-1.1-.8-1.8-.8s-1.3.3-1.8.8-.8 1.2-.8 1.9c-.1.7.2 1.4.8 1.9.5.5 1.1.7 1.8.8.7 0 1.4-.3 1.9-.8.4-.4.6-.8.6-1.3h-2.4V11h3.2v.3zm5.1-2.7h-3v2.1h2.8v.8h-2.8v2.1h3v.9h-3.9V7.8h3.9v.8zm3.6 5.8h-.9V8.6h-1.9v-.8h4.7v.8h-1.9v5.8zm5.2 0V7.8h.9v6.7h-.9zm4.6 0h-.9V8.6h-1.9v-.8H73v.8h-1.9v5.9h.1zm10.6-.8c-1.3 1.4-3.5 1.4-4.9 0-.7-.7-1-1.5-1-2.5 0-1.9 1.5-3.4 3.4-3.4s3.4 1.5 3.4 3.4c.1.9-.3 1.8-.9 2.5zm-4.2-.6c.5.5 1.1.8 1.8.8s1.3-.3 1.8-.8.8-1.2.8-1.9c.1-.7-.2-1.4-.8-1.9-.5-.5-1.1-.8-1.8-.8s-1.3.3-1.8.8-.8 1.2-.8 1.9c-.1.7.2 1.4.8 1.9zm6.4 1.4V7.8h1l3.2 5.2V7.8h.9v6.7h-.9L84.8 9v5.4H84z"/><path class="st2" d="M75.7 24.2c-2.6-.1-4.7 2-4.8 4.6v.2c0 2.6 2.1 4.8 4.7 4.8h.1c2.6.1 4.7-2 4.8-4.6V29c.1-2.5-1.9-4.7-4.4-4.8h-.4zm0 7.6c-1.6-.1-2.8-1.5-2.6-3.1.1-1.4 1.2-2.5 2.6-2.6 1.5 0 2.7 1.2 2.7 2.7v.2c0 1.4-1.2 2.7-2.7 2.8zm-10.4-7.6c-2.6-.1-4.7 2-4.8 4.6v.2c0 2.6 2.1 4.8 4.7 4.8h.1c2.6.1 4.7-2 4.8-4.6V29c.1-2.5-1.9-4.7-4.4-4.8h-.4zm0 7.6c-1.6-.1-2.8-1.5-2.6-3.1.1-1.4 1.2-2.5 2.6-2.6 1.5 0 2.7 1.2 2.7 2.7v.2c.1 1.4-1.1 2.7-2.7 2.8.1 0 0 0 0 0zM53 25.7v2h4.8c-.1 1-.5 1.9-1.1 2.6-1 1-2.3 1.5-3.7 1.4-2.9 0-5.2-2.3-5.2-5.1v-.2c0-2.9 2.3-5.3 5.2-5.3h.1c1.4 0 2.7.5 3.7 1.4l1.4-1.4c-1.3-1.3-3.1-2-5-2-4.1 0-7.4 3.3-7.4 7.3.1 4.1 3.4 7.3 7.4 7.3 1.9.1 3.8-.7 5.1-2.1 1.2-1.3 1.8-2.9 1.8-4.7 0-.4 0-.8-.1-1.2h-7zm50.4 1.5c-.6-1.7-2.2-3-4-3-2.5 0-4.5 2-4.5 4.4v.3c-.1 2.6 1.9 4.7 4.5 4.8h.2c1.6 0 3-.8 3.9-2.1l-1.6-1.1c-.5.8-1.4 1.3-2.3 1.3-1 .1-1.9-.5-2.3-1.4l6.3-2.7-.2-.5zM97 28.8c0-1.4 1-2.6 2.4-2.8.7 0 1.4.4 1.8 1L97 28.8zm-5.2 4.5h2.1V19.4h-2.1v13.9zm-3.4-8.1c-.7-.7-1.6-1.1-2.6-1.1-2.6.1-4.6 2.2-4.6 4.8 0 2.5 2 4.6 4.5 4.7.9 0 1.8-.4 2.4-1.1h.1v.7c.2 1.4-.8 2.6-2.2 2.8-1.2.1-2.3-.6-2.7-1.7l-1.5.7c.7 1.7 2.4 2.8 4.2 2.8 2.4 0 4.4-1.4 4.4-4.9v-8.4h-2v.7zM86 31.8c-1.6-.1-2.8-1.5-2.6-3.1.1-1.4 1.2-2.5 2.6-2.6 1.5.1 2.6 1.3 2.6 2.8v.1c.1 1.4-1 2.7-2.6 2.8.1 0 0 0 0 0zm27.1-12.4h-5v13.9h2.1v-5.2h2.9c2.4 0 4.3-1.9 4.3-4.3s-1.9-4.4-4.3-4.4zm.1 6.7h-3v-4.8h3c1.3 0 2.4 1 2.4 2.3 0 1.4-1 2.5-2.4 2.5zm12.8-2c-1.5-.1-3 .7-3.7 2.1l1.9.8c.4-.7 1.1-1.1 1.9-1 1.1-.1 2.1.7 2.2 1.8v.1c-.6-.4-1.4-.5-2.1-.6-2 0-4 1.1-4 3.1.1 1.8 1.6 3.2 3.4 3.1h.1c1.1 0 2.1-.5 2.7-1.3h.1v1.1h2V28c-.2-2.3-2.2-4-4.5-3.9zm-.2 7.7c-.7 0-1.7-.3-1.7-1.2 0-1.1 1.2-1.4 2.2-1.4.7 0 1.3.2 1.9.4-.2 1.2-1.2 2.1-2.4 2.2zm11.6-7.4l-2.3 6h-.1l-2.4-6h-2.2l3.7 8.4-2.1 4.7h2.1l5.7-13.1h-2.4zm-18.6 8.9h2.1V19.4h-2.1v13.9z"/><linearGradient id="SVGID_1_" gradientUnits="userSpaceOnUse" x1="24.189" y1="-547.644" x2="5.544" y2="-566.289" gradientTransform="matrix(1 0 0 -1 0 -538)"><stop offset="0" stop-color="#00A0FF"/><stop offset=".01" stop-color="#00A1FF"/><stop offset=".26" stop-color="#00BEFF"/><stop offset=".51" stop-color="#00D2FF"/><stop offset=".76" stop-color="#00DFFF"/><stop offset="1" stop-color="#00E3FF"/></linearGradient><path class="st3" d="M11.6 8.3c-.4.4-.6 1-.6 1.6v24.6c0 .6.2 1.1.6 1.6l.1.1 13.8-13.8v-.2L11.6 8.3z"/><linearGradient id="SVGID_2_" gradientUnits="userSpaceOnUse" x1="37.589" y1="-560.278" x2="10.711" y2="-560.278" gradientTransform="matrix(1 0 0 -1 0 -538)"><stop offset="0" stop-color="#FFE000"/><stop offset=".41" stop-color="#FFBD00"/><stop offset=".78" stop-color="#FFA500"/><stop offset="1" stop-color="#FF9C00"/></linearGradient><path class="st4" d="M30 27l-4.6-4.6v-.3l4.6-4.6.1.1 5.4 3.1c1.6.9 1.6 2.3 0 3.2.1.1-5.5 3.1-5.5 3.1z"/><linearGradient id="SVGID_3_" gradientUnits="userSpaceOnUse" x1="27.578" y1="-562.756" x2="2.289" y2="-588.044" gradientTransform="matrix(1 0 0 -1 0 -538)"><stop offset="0" stop-color="#FF3A44"/><stop offset="1" stop-color="#C31162"/></linearGradient><path class="st5" d="M30.1 26.9l-4.7-4.7-13.8 13.9c.6.6 1.3.6 2.3.1l16.2-9.3"/><linearGradient id="SVGID_4_" gradientUnits="userSpaceOnUse" x1="8.067" y1="-538.233" x2="19.356" y2="-549.522" gradientTransform="matrix(1 0 0 -1 0 -538)"><stop offset="0" stop-color="#32A071"/><stop offset=".07" stop-color="#2DA771"/><stop offset=".48" stop-color="#15CF74"/><stop offset=".8" stop-color="#06E775"/><stop offset="1" stop-color="#00F076"/></linearGradient><path class="st6" d="M30.1 17.6L13.9 8.3c-.7-.5-1.7-.5-2.3.1l13.9 13.8 4.6-4.6z"/><path class="st7" d="M30 26.8l-16.1 9.1c-.7.5-1.6.5-2.2 0l-.1.1.1.1c.7.5 1.6.5 2.2 0L30 26.8z"/><path class="st8" d="M11.6 35.9c-.3-.4-.5-1-.4-1.6v.1c0 .6.2 1.1.6 1.6v-.1h-.2zm24-12.2L30 26.8l.1.1 5.4-3.1c.6-.3 1.1-.9 1.1-1.6.1.6-.4 1-1 1.5z"/><path class="st9" d="M13.9 8.4l21.7 12.3c.7.4 1.1.9 1.1 1.4-.1-.7-.5-1.3-1.1-1.6L13.9 8.3c-1.6-.9-2.8-.1-2.8 1.7v.1c0-1.8 1.2-2.5 2.8-1.7z"/></svg>
