<svg id="US_UK_Download_on_the" xmlns="http://www.w3.org/2000/svg" viewBox="0 0 150 44.4"><style>.st0{fill:#A6A6A6;} .st1{fill:#FFFFFF;}</style><path class="st0" d="M144.7 44.4H5.2c-2.9 0-5.2-2.3-5.2-5.2v-34C0 2.3 2.3 0 5.2 0h139.4c2.9 0 5.3 2.3 5.3 5.2v33.9c.1 3-2.3 5.3-5.2 5.3z"/><path d="M148.9 39.2c0 2.3-1.9 4.2-4.2 4.2H5.2c-2.3 0-4.2-1.9-4.2-4.2v-34C1 2.9 2.9 1 5.2 1h139.4c2.3 0 4.2 1.9 4.2 4.2v34h.1z"/><path class="st1" d="M33.4 22c0-3.6 2.9-5.3 3.1-5.4-1.7-2.4-4.3-2.8-5.2-2.8-2.2-.2-4.3 1.3-5.4 1.3-1.1 0-2.9-1.3-4.7-1.2-2.3 0-4.6 1.4-5.8 3.6-2.6 4.3-.7 10.8 1.8 14.3 1.2 1.8 2.7 3.7 4.4 3.6 1.8-.1 2.4-1.1 4.7-1.1 2.1 0 2.8 1.1 4.7 1.1 1.9 0 3.1-1.8 4.3-3.4 1.4-2 2-3.9 2-4-.1-.3-3.7-1.8-3.9-6zm-3.5-10.6c1-1.2 1.7-2.9 1.4-4.6-1.4.1-3.1 1-4.2 2.1-.9 1-1.7 2.8-1.4 4.3 1.6.4 3.2-.5 4.2-1.8zM59.6 35H57l-1.3-4.3h-4.8L49.6 35h-2.4L52 20.2h2.9L59.6 35zm-4.3-6.1L54.1 25c-.1-.4-.3-1.3-.8-2.8-.1.7-.3 1.6-.7 2.8l-1.3 3.9h4zm16.6.7c0 1.8-.4 3.2-1.4 4.3-.9.9-2 1.4-3.2 1.4-1.4 0-2.4-.6-3-1.6v5.7H62V27.9c0-1.1 0-2.3-.1-3.6H64V26c.8-1.2 2-1.9 3.6-1.9 1.2 0 2.3.4 3.1 1.4.7 1.1 1.2 2.4 1.2 4.1zm-2.5.1c0-1-.2-1.9-.7-2.6-.6-.7-1.2-1-2.1-1-.6 0-1.1.2-1.6.6-.4.4-.8.9-.9 1.6-.1.3-.1.6-.1.7v1.8c0 .8.2 1.4.7 2 .4.6 1.1.8 1.9.8.9 0 1.6-.3 2.1-1 .5-.9.7-1.8.7-2.9zm14.7-.1c0 1.8-.4 3.2-1.4 4.3-.9.9-2 1.4-3.2 1.4-1.4 0-2.4-.6-3-1.6v5.7h-2.3V27.9c0-1.1 0-2.3-.1-3.6h2.1l.1 1.7c.8-1.2 2-1.9 3.6-1.9 1.2 0 2.3.4 3.1 1.4.7 1.1 1.1 2.4 1.1 4.1zm-2.4.1c0-1-.2-1.9-.7-2.6-.6-.7-1.2-1-2.1-1-.6 0-1.1.2-1.6.6-.4.4-.8.9-.9 1.6-.1.3-.1.6-.1.7v1.8c0 .8.2 1.4.7 2 .4.6 1.1.8 1.9.8.9 0 1.6-.3 2.1-1 .4-.9.7-1.8.7-2.9zm16.1 1.2c0 1.2-.4 2.3-1.3 3.1-1 .9-2.3 1.3-4 1.3-1.6 0-2.9-.3-3.8-.9l.6-2c1 .7 2.2 1 3.4 1 .9 0 1.6-.2 2.1-.6.4-.4.8-.9.8-1.7 0-.6-.2-1.1-.7-1.6-.4-.4-1.1-.8-2-1.1-2.6-1-3.9-2.3-3.9-4.2 0-1.2.4-2.2 1.3-3 .9-.8 2.1-1.1 3.7-1.1 1.3 0 2.4.2 3.3.7l-.7 1.8c-.9-.4-1.8-.7-2.8-.7-.9 0-1.4.2-2 .7-.4.3-.6.8-.6 1.3s.2 1.1.7 1.4c.4.3 1.1.8 2.1 1.1 1.2.6 2.2 1.1 2.8 1.8.8.8 1 1.7 1 2.7zm7.9-4.8h-2.6v5.2c0 1.3.4 2 1.3 2 .4 0 .8 0 1-.1l.1 1.8c-.4.2-1.1.2-1.9.2-.9 0-1.7-.3-2.2-.9-.6-.6-.8-1.6-.8-2.9v-5.3H99v-1.8h1.6v-2l2.3-.7v2.7h2.6c.2 0 .2 1.8.2 1.8zm11.7 3.5c0 1.7-.4 3-1.4 4-1 1.1-2.3 1.7-3.9 1.7s-2.8-.6-3.8-1.6-1.4-2.3-1.4-3.9c0-1.7.4-3 1.4-4.1 1-1 2.2-1.6 3.9-1.6 1.6 0 2.8.6 3.8 1.6s1.4 2.3 1.4 3.9zm-2.4.1c0-1-.2-1.8-.7-2.6-.4-.9-1.2-1.2-2.1-1.2-1 0-1.7.4-2.2 1.2-.4.7-.7 1.6-.7 2.6s.2 1.8.7 2.6c.6.9 1.2 1.2 2.1 1.2s1.7-.4 2.1-1.3c.6-.8.8-1.5.8-2.5zm10.1-3.3c-.2 0-.4-.1-.8-.1-.9 0-1.4.3-1.9 1-.4.6-.6 1.2-.6 2.1V35h-2.3v-7.3c0-1.2 0-2.3-.1-3.3h2.1l.1 2h.1c.2-.7.7-1.2 1.2-1.7.6-.3 1.1-.6 1.7-.6h.6c-.1.1-.1 2.3-.1 2.3zm10.7 2.8c0 .4 0 .8-.1 1.1h-7.1c0 1 .3 1.9 1 2.4.6.4 1.3.8 2.3.8s2-.2 2.9-.6l.3 1.7c-1 .4-2.2.7-3.6.7-1.7 0-3-.4-3.9-1.4-.9-1-1.4-2.2-1.4-3.9 0-1.6.4-3 1.3-4 .9-1.1 2.1-1.7 3.8-1.7 1.6 0 2.7.6 3.4 1.7.7.7 1.1 1.9 1.1 3.2zm-2.4-.6c0-.7-.1-1.3-.4-1.8-.4-.7-1-1-1.9-1-.8 0-1.4.3-1.9 1-.4.6-.7 1.1-.7 1.9l4.9-.1zm-79-17.5c0 1.3-.4 2.3-1.2 3-.8.6-1.8.9-3.1.9-.7 0-1.2 0-1.7-.1V7.8c.7-.1 1.3-.1 2-.1 1.2 0 2.2.2 2.9.8.8.6 1.1 1.5 1.1 2.6zm-1.2 0c0-.9-.2-1.4-.7-2-.4-.4-1.1-.7-2-.7-.3 0-.7 0-.9.1V14h.8c.9 0 1.6-.2 2.1-.8.6-.5.7-1.1.7-2.1zm7.8 1.1c0 .8-.2 1.4-.7 2-.4.6-1.1.8-1.9.8s-1.3-.2-1.9-.8c-.4-.6-.7-1.1-.7-1.9s.2-1.4.7-2c.4-.6 1.1-.8 1.9-.8s1.3.2 1.9.8c.5.6.7 1.1.7 1.9zm-1.2.1c0-.4-.1-.9-.3-1.2-.2-.4-.6-.7-1-.7s-.8.2-1.1.7c-.2.3-.3.8-.3 1.2 0 .4.1.9.3 1.2.2.4.6.7 1.1.7.4 0 .8-.2 1-.7.2-.3.3-.7.3-1.2zm10-2.6l-1.7 5.2H67l-.7-2.2c-.2-.6-.3-1.1-.4-1.7-.1.6-.2 1.1-.4 1.7l-.7 2.2h-1.1l-1.6-5.2h1.2l.6 2.4c.1.6.2 1.1.3 1.7.1-.4.2-1 .4-1.7l.8-2.4h1l.7 2.4c.2.6.3 1.2.4 1.8.1-.6.2-1.1.3-1.8l.7-2.4h1.3zm6 5.2h-1.1v-3c0-.9-.3-1.3-1-1.3-.3 0-.7.1-.9.3-.2.2-.3.6-.3.9v3.1h-1.1V9.7h.9v.8c.1-.2.3-.4.6-.7.3-.2.7-.3 1-.3.4 0 .9.1 1.2.4.4.3.6 1 .6 1.8v3.2h.1zm3.2 0h-1.1V7.3H79v7.6zm6.9-2.7c0 .8-.2 1.4-.7 2-.4.6-1.1.8-1.9.8-.8 0-1.3-.2-1.9-.8-.4-.6-.7-1.1-.7-1.9s.2-1.4.7-2c.4-.6 1.1-.8 1.9-.8.8 0 1.3.2 1.9.8.5.6.7 1.1.7 1.9zm-1.2.1c0-.4-.1-.9-.3-1.2-.2-.4-.6-.7-1-.7s-.8.2-1.1.7c-.2.3-.3.8-.3 1.2 0 .4.1.9.3 1.2.2.4.6.7 1.1.7.4 0 .8-.2 1-.7.2-.3.3-.7.3-1.2zm6.7 2.6h-1l-.1-.6c-.3.5-.9.7-1.5.7-.4 0-.9-.1-1.2-.4-.2-.3-.4-.7-.4-1.1 0-.7.2-1.1.8-1.4.6-.3 1.3-.6 2.2-.4v-.1c0-.7-.3-1-1.1-1-.6 0-1 .1-1.3.3l-.2-.9c.4-.3 1.1-.4 1.8-.4 1.3 0 2 .7 2 2.1v3.2zm-1.2-1.8v-.8c-1.3 0-1.9.3-1.9 1 0 .2.1.4.2.7.1.1.3.2.6.2s.4-.1.7-.2c.2-.1.3-.3.4-.7v-.2zm7.9 1.8h-1V14c-.3.7-.9 1-1.7 1-.7 0-1.1-.2-1.6-.8-.4-.6-.7-1.1-.7-1.9 0-.9.2-1.6.7-2.1.4-.4 1-.8 1.7-.8s1.2.2 1.4.7V7.3H98v6.2c0 .5.1.9.1 1.4zm-1.2-2.2v-1.2c-.1-.3-.2-.6-.4-.7-.2-.2-.4-.3-.8-.3s-.8.2-1 .6c-.2.3-.3.8-.3 1.3 0 .6.1.9.3 1.2.2.3.6.6 1 .6.3 0 .7-.1.9-.4.2-.4.3-.7.3-1.1zm11.1-.5c0 .8-.2 1.4-.7 2-.4.6-1.1.8-1.9.8-.8 0-1.3-.2-1.9-.8-.4-.6-.7-1.1-.7-1.9s.2-1.4.7-2c.4-.6 1.1-.8 1.9-.8.8 0 1.3.2 1.9.8.5.6.7 1.1.7 1.9zm-1.1.1c0-.4-.1-.9-.3-1.2-.2-.4-.6-.7-1-.7s-.8.2-1.1.7c-.2.3-.3.8-.3 1.2 0 .4.1.9.3 1.2.2.4.6.7 1.1.7.4 0 .8-.2 1-.7.2-.3.3-.7.3-1.2zm7.4 2.6h-1.1v-3c0-.9-.3-1.3-1.1-1.3-.3 0-.7.1-.9.3-.2.2-.3.6-.3.9v3.1h-1.1V9.7h1v.8c.1-.2.3-.4.6-.7.3-.2.7-.3 1.1-.3.4 0 .9.1 1.2.4.4.3.6 1 .6 1.8v3.2zm7.8-4.3h-1.3v2.6c0 .7.2 1 .7 1h.6v.8c-.2.1-.6.1-.9.1-.4 0-.8-.1-1.1-.4-.2-.3-.3-.8-.3-1.4v-2.7h-.8v-.9h.8v-.9l1.1-.3v1.3h1.3l-.1.8zm6.2 4.3h-1.1v-3c0-.9-.3-1.4-1-1.4-.6 0-.9.2-1.1.8v3.5H124V7.3h1.1v3.1c.3-.6.9-.9 1.6-.9.4 0 .9.1 1.2.4.4.4.6 1 .6 1.8-.2.1-.2 3.2-.2 3.2zm6.4-2.8v.6h-3.6c0 .6.2.9.6 1.2.3.2.7.3 1.1.3.6 0 1-.1 1.4-.2l.2.8c-.4.2-1.1.3-1.8.3-.8 0-1.4-.2-1.9-.7-.4-.4-.7-1.1-.7-1.9 0-.8.2-1.4.7-2s1.1-.9 1.8-.9c.8 0 1.3.3 1.7.9.4.4.5.9.5 1.6zm-1.1-.3c0-.3-.1-.7-.2-.9-.2-.3-.6-.4-.9-.4-.3 0-.7.1-.9.4-.2.2-.3.6-.3.9h2.3z"/></svg>
