<?xml version="1.0" encoding="utf-8"?>
<!-- Generator: Adobe Illustrator 16.0.0, SVG Export Plug-In . SVG Version: 6.00 Build 0)  -->
<!DOCTYPE svg PUBLIC "-//W3C//DTD SVG 1.1//EN" "http://www.w3.org/Graphics/SVG/1.1/DTD/svg11.dtd">
<svg version="1.1" id="Layer_1" xmlns="http://www.w3.org/2000/svg" xmlns:xlink="http://www.w3.org/1999/xlink" x="0px" y="0px"
	 width="360px" height="144px" viewBox="0 0 360 144" enable-background="new 0 0 360 144" xml:space="preserve">
<path fill="#FFFFFF" d="M245.264,71.16c0-9.239-6.72-15.455-16.127-15.455c-11.088,0-19.486,9.575-19.486,21.334
	c0,9.24,6.719,15.455,16.127,15.455C236.864,92.326,245.264,82.752,245.264,71.16 M192.516,78.048
	c0-20.495,15.959-36.79,37.461-36.79c18.143,0,32.086,11.423,32.086,28.727c0,20.494-15.959,36.957-37.461,36.957
	C206.626,106.941,192.516,95.519,192.516,78.048 M307.756,105.766l-0.84-39.813l-17.135,37.126c-0.672,1.512-2.353,2.52-4.032,2.52
	h-14.447l-3.864-58.796c-0.168-2.52,1.849-4.704,4.368-4.704h13.271l0.336,42.333l18.982-39.814c0.673-1.512,2.353-2.52,4.032-2.52
	h9.575l1.512,42.333l17.807-39.646c0.673-1.68,2.353-2.688,4.032-2.688h15.959l-30.91,60.98c-0.84,1.512-2.352,2.52-4.031,2.52
	h-14.615V105.766z M162.445,105.766l-18.479-37.797l-8.399,37.797h-16.295l13.271-59.972c0.504-2.016,2.184-3.528,4.368-3.528
	h13.271l17.639,36.118l8.063-36.118h16.463l-13.271,59.972c-0.504,2.016-2.184,3.527-4.368,3.527H162.445L162.445,105.766z
	 M95.921,37.73L68.54,13.036c-1.848-1.68-4.704-1.848-6.72-0.504L19.487,39.746c-2.52,1.68-4.2,4.2-4.872,7.056L2.856,99.551
	c-0.84,3.527,1.848,6.887,5.543,6.887h57.116l10.919,24.694c1.008,2.185,4.2,1.849,4.704-0.504l18.311-81.979
	C100.289,44.618,98.945,40.418,95.921,37.73z M30.238,76.535c-3.864,0-6.887-2.52-6.887-6.215c0-4.368,3.36-7.896,8.063-7.896
	c3.864,0,6.887,2.52,6.887,6.215C38.301,73.008,34.942,76.535,30.238,76.535z M51.573,76.535c-3.864,0-6.888-2.52-6.888-6.215
	c0-4.368,3.36-7.896,8.063-7.896c3.864,0,6.888,2.52,6.888,6.215C59.636,73.008,56.276,76.535,51.573,76.535z M73.243,76.535
	c-3.864,0-6.888-2.52-6.888-6.215c0-4.368,3.36-7.896,8.063-7.896c3.864,0,6.888,2.52,6.888,6.215
	C81.307,73.008,77.947,76.535,73.243,76.535z"/>
<path fill="#C8C7C7" d="M82.146,106.27H65.348l3.696,8.231"/>
</svg>
