<?xml version="1.0" encoding="utf-8"?>
<!-- Generator: Adobe Illustrator 16.0.0, SVG Export Plug-In . SVG Version: 6.00 Build 0)  -->
<!DOCTYPE svg PUBLIC "-//W3C//DTD SVG 1.1//EN" "http://www.w3.org/Graphics/SVG/1.1/DTD/svg11.dtd">
<svg version="1.1" id="Layer_1" xmlns="http://www.w3.org/2000/svg" xmlns:xlink="http://www.w3.org/1999/xlink" x="0px" y="0px"
	 width="231.248px" height="144.232px" viewBox="0 0 231.248 144.232" enable-background="new 0 0 231.248 144.232"
	 xml:space="preserve">
<path fill="#8A8C8F" d="M231.211,45.974c-0.014,0.159-0.025,0.318-0.055,0.477c-0.023,0.128-0.062,0.255-0.095,0.382
	c-0.04,0.151-0.077,0.304-0.13,0.454c-0.043,0.121-0.101,0.242-0.152,0.363c-0.068,0.158-0.139,0.316-0.223,0.473
	c-0.061,0.112-0.132,0.223-0.2,0.334c-0.108,0.175-0.223,0.35-0.351,0.521c-0.121,0.163-0.246,0.326-0.387,0.485
	c-0.036,0.041-0.068,0.083-0.106,0.124c-0.192,0.212-0.405,0.419-0.631,0.622c-0.142,0.127-0.299,0.25-0.452,0.373
	c-0.139,0.111-0.271,0.225-0.421,0.334c-0.169,0.123-0.356,0.24-0.538,0.358c-0.187,0.122-0.363,0.247-0.564,0.363l-7.047,4.095
	L89.475,131.503l-3.526,2.049c-0.445,0.26-0.919,0.492-1.405,0.711c-0.14,0.062-0.283,0.121-0.426,0.182
	c-0.379,0.158-0.768,0.306-1.166,0.441c-0.146,0.05-0.291,0.104-0.439,0.15c-0.254,0.079-0.514,0.149-0.773,0.221
	c-0.195,0.053-0.39,0.109-0.589,0.157c-0.27,0.065-0.545,0.12-0.819,0.175c-0.192,0.039-0.383,0.083-0.578,0.117
	c-0.563,0.1-1.136,0.178-1.713,0.238c-0.169,0.018-0.34,0.028-0.51,0.043c-0.347,0.028-0.693,0.054-1.043,0.069
	c-0.214,0.009-0.428,0.013-0.643,0.018c-0.281,0.005-0.562,0.007-0.844,0.003c-0.223-0.002-0.443-0.009-0.665-0.018
	c-0.265-0.01-0.528-0.023-0.792-0.043c-0.225-0.016-0.448-0.033-0.672-0.055c-0.256-0.025-0.512-0.054-0.766-0.086
	c-0.225-0.028-0.447-0.06-0.669-0.094c-0.271-0.043-0.538-0.09-0.806-0.141c-0.205-0.039-0.409-0.079-0.611-0.123
	c-0.318-0.07-0.633-0.148-0.943-0.231c-0.17-0.045-0.342-0.087-0.509-0.136c-0.55-0.16-1.087-0.34-1.604-0.542
	c-0.256-0.1-0.504-0.208-0.752-0.318c-0.127-0.057-0.26-0.108-0.385-0.168c-0.377-0.179-0.744-0.368-1.096-0.571L4.435,98.74
	c-2.946-1.7-4.418-3.945-4.411-6.188L0,100.705c-0.007,2.241,1.465,4.486,4.411,6.188l60.297,34.812
	c0.351,0.203,0.718,0.393,1.094,0.57c0.126,0.06,0.259,0.111,0.387,0.168c0.22,0.098,0.437,0.199,0.664,0.289
	c0.028,0.012,0.06,0.02,0.089,0.03c0.518,0.201,1.053,0.381,1.602,0.541c0.043,0.013,0.082,0.03,0.125,0.042
	c0.127,0.037,0.262,0.062,0.391,0.096c0.309,0.082,0.617,0.16,0.933,0.229c0.081,0.018,0.159,0.042,0.241,0.059
	c0.125,0.026,0.254,0.043,0.381,0.066c0.266,0.051,0.533,0.098,0.803,0.14c0.104,0.017,0.204,0.039,0.309,0.054
	c0.117,0.017,0.238,0.025,0.355,0.04c0.253,0.032,0.505,0.06,0.76,0.085c0.117,0.012,0.232,0.029,0.352,0.039
	c0.113,0.01,0.229,0.01,0.342,0.019c0.254,0.017,0.508,0.03,0.763,0.04c0.128,0.006,0.255,0.018,0.382,0.021
	c0.104,0.002,0.206-0.004,0.309-0.002c0.277,0.004,0.555,0.001,0.831-0.004c0.136-0.002,0.272,0.003,0.408-0.002
	c0.08-0.003,0.159-0.012,0.239-0.016c0.341-0.016,0.68-0.04,1.02-0.068c0.139-0.012,0.278-0.014,0.416-0.027
	c0.042-0.004,0.082-0.013,0.125-0.018c0.574-0.061,1.143-0.139,1.704-0.237c0.03-0.005,0.062-0.007,0.091-0.013
	c0.166-0.029,0.325-0.071,0.488-0.104c0.273-0.056,0.547-0.108,0.814-0.174c0.204-0.049,0.401-0.106,0.602-0.161
	c0.256-0.07,0.512-0.139,0.762-0.218c0.059-0.018,0.119-0.031,0.176-0.05c0.093-0.03,0.177-0.07,0.269-0.102
	c0.396-0.135,0.782-0.281,1.16-0.439c0.145-0.061,0.29-0.119,0.431-0.184c0.485-0.219,0.959-0.451,1.404-0.709l3.525-2.05
	l130.385-75.771l7.047-4.096c0.061-0.035,0.121-0.071,0.182-0.107c0.14-0.084,0.26-0.176,0.393-0.262
	c0.178-0.117,0.361-0.231,0.527-0.352c0.15-0.109,0.285-0.224,0.424-0.336c0.154-0.124,0.311-0.246,0.451-0.373
	c0.027-0.023,0.061-0.047,0.088-0.072c0.194-0.18,0.373-0.363,0.543-0.549c0.037-0.041,0.07-0.083,0.106-0.124
	c0.095-0.108,0.192-0.216,0.278-0.325c0.041-0.051,0.066-0.105,0.105-0.156c0.129-0.173,0.244-0.348,0.352-0.523
	c0.046-0.072,0.105-0.143,0.146-0.217c0.022-0.039,0.035-0.08,0.057-0.119c0.083-0.154,0.15-0.311,0.219-0.467
	c0.039-0.09,0.092-0.18,0.127-0.271c0.012-0.032,0.016-0.065,0.027-0.099c0.054-0.149,0.09-0.301,0.13-0.451
	c0.026-0.1,0.065-0.199,0.086-0.3c0.005-0.028,0.005-0.056,0.01-0.083c0.028-0.159,0.04-0.318,0.054-0.477
	c0.01-0.104,0.033-0.205,0.035-0.307c0.002-0.045,0.002-0.089,0.002-0.133c0.008-2.717,0.016-5.435,0.023-8.152
	C231.248,45.681,231.225,45.828,231.211,45.974z"/>
<g>
	<path fill="none" stroke="#777677" stroke-width="0.25" stroke-miterlimit="10" d="M0,98.705c0.008-2.718,0.016-5.436,0.023-8.152
		c-0.007,2.242,1.465,4.487,4.411,6.188l-0.023,8.152C1.465,103.191-0.007,100.946,0,98.705z"/>
	<g enable-background="new    ">
		<g>
			<path fill="#868787" stroke="#777677" stroke-width="0.25" stroke-miterlimit="10" d="M204.186,32.433
				c0.779,0.45,0.783,1.188,0.01,1.637l-0.711,0.413c-0.773,0.45-2.047,0.45-2.826,0L171.57,17.689
				c-0.779-0.449-0.783-1.188-0.01-1.637l0.711-0.413c0.773-0.45,2.047-0.45,2.826,0L204.186,32.433z"/>
		</g>
		<g>
			<path fill="#868787" stroke="#777677" stroke-width="0.25" stroke-miterlimit="10" d="M210.922,36.323
				c0.982,0.567,0.981,1.485,0.011,2.05c-0.97,0.563-2.556,0.566-3.538,0c-0.977-0.564-0.976-1.482-0.006-2.047
				C208.359,35.762,209.944,35.758,210.922,36.323z"/>
		</g>
		<path fill="#FFFFFF" stroke="#777677" stroke-width="0.25" stroke-miterlimit="10" d="M226.837,37.347L166.54,2.535
			c-5.854-3.38-15.4-3.38-21.218,0l-7.047,4.096L7.892,82.401l-3.526,2.05c-5.816,3.381-5.785,8.91,0.069,12.289l60.296,34.812
			c5.855,3.381,15.401,3.381,21.218,0l3.526-2.049l130.385-75.771l7.047-4.095C232.723,46.257,232.691,40.728,226.837,37.347z
			 M207.389,36.326c0.971-0.563,2.556-0.567,3.533-0.003c0.982,0.567,0.981,1.485,0.011,2.05c-0.97,0.563-2.555,0.566-3.538,0
			C206.418,37.808,206.419,36.89,207.389,36.326z M171.561,16.052l0.711-0.413c0.773-0.45,2.047-0.45,2.826,0l29.088,16.794
			c0.779,0.45,0.783,1.188,0.01,1.637l-0.711,0.413c-0.773,0.45-2.047,0.45-2.826,0L171.57,17.689
			C170.791,17.239,170.787,16.501,171.561,16.052z M85.926,127.454L30.62,95.523L11.441,84.451L141.825,8.679l74.483,43.004
			L85.926,127.454z"/>
	</g>
	<linearGradient id="SVGID_1_" gradientUnits="userSpaceOnUse" x1="0" y1="92.8833" x2="231.248" y2="92.8833">
		<stop  offset="0" style="stop-color:#8A8A8A"/>
		<stop  offset="0.3169" style="stop-color:#8A8A8A"/>
		<stop  offset="0.3551" style="stop-color:#CCCCCC"/>
		<stop  offset="0.5882" style="stop-color:#D4D4D4"/>
		<stop  offset="0.912" style="stop-color:#D9D9D9"/>
		<stop  offset="0.9535" style="stop-color:#D7D7D7"/>
		<stop  offset="0.9684" style="stop-color:#D0D0D0"/>
		<stop  offset="0.9791" style="stop-color:#C4C4C4"/>
		<stop  offset="0.9877" style="stop-color:#B3B3B3"/>
		<stop  offset="0.995" style="stop-color:#9E9E9E"/>
		<stop  offset="1" style="stop-color:#8A8A8A"/>
	</linearGradient>
	<path fill="url(#SVGID_1_)" stroke="#777677" stroke-width="0.25" stroke-miterlimit="10" d="M231.211,43.974
		c-0.014,0.159-0.025,0.318-0.055,0.477c-0.023,0.128-0.062,0.255-0.095,0.382c-0.04,0.151-0.077,0.304-0.13,0.454
		c-0.043,0.121-0.101,0.242-0.152,0.363c-0.068,0.158-0.139,0.316-0.223,0.473c-0.061,0.112-0.132,0.223-0.2,0.334
		c-0.108,0.175-0.223,0.35-0.351,0.521c-0.121,0.163-0.246,0.326-0.387,0.485c-0.036,0.041-0.068,0.083-0.106,0.124
		c-0.192,0.212-0.405,0.419-0.631,0.622c-0.142,0.127-0.299,0.25-0.452,0.373c-0.139,0.111-0.271,0.225-0.421,0.334
		c-0.169,0.123-0.356,0.24-0.538,0.358c-0.187,0.122-0.363,0.247-0.564,0.363l-7.047,4.095L89.475,129.503l-3.526,2.049
		c-0.445,0.26-0.919,0.492-1.405,0.711c-0.14,0.062-0.283,0.121-0.426,0.182c-0.379,0.158-0.768,0.306-1.166,0.441
		c-0.146,0.05-0.291,0.104-0.439,0.15c-0.254,0.079-0.514,0.149-0.773,0.221c-0.195,0.053-0.39,0.109-0.589,0.157
		c-0.27,0.065-0.545,0.12-0.819,0.175c-0.192,0.039-0.383,0.083-0.578,0.117c-0.563,0.1-1.136,0.178-1.713,0.238
		c-0.169,0.018-0.34,0.028-0.51,0.043c-0.347,0.028-0.693,0.054-1.043,0.069c-0.214,0.009-0.428,0.013-0.643,0.018
		c-0.281,0.005-0.562,0.007-0.844,0.003c-0.223-0.002-0.443-0.009-0.665-0.018c-0.265-0.01-0.528-0.023-0.792-0.043
		c-0.225-0.016-0.448-0.033-0.672-0.055c-0.256-0.025-0.512-0.054-0.766-0.086c-0.225-0.028-0.447-0.06-0.669-0.094
		c-0.271-0.043-0.538-0.09-0.806-0.141c-0.205-0.039-0.409-0.079-0.611-0.123c-0.318-0.07-0.633-0.148-0.943-0.231
		c-0.17-0.045-0.342-0.087-0.509-0.136c-0.55-0.16-1.087-0.34-1.604-0.542c-0.256-0.1-0.504-0.208-0.752-0.318
		c-0.127-0.057-0.26-0.108-0.385-0.168c-0.377-0.179-0.744-0.368-1.096-0.571L4.435,96.74c-2.946-1.7-4.418-3.945-4.411-6.188
		L0,98.705c-0.007,2.241,1.465,4.486,4.411,6.188l60.297,34.812c0.351,0.203,0.718,0.393,1.094,0.57
		c0.126,0.06,0.259,0.111,0.387,0.168c0.22,0.098,0.437,0.199,0.664,0.289c0.028,0.012,0.06,0.02,0.089,0.03
		c0.518,0.201,1.053,0.381,1.602,0.541c0.043,0.013,0.082,0.03,0.125,0.042c0.127,0.037,0.262,0.062,0.391,0.096
		c0.309,0.082,0.617,0.16,0.933,0.229c0.081,0.018,0.159,0.042,0.241,0.059c0.125,0.026,0.254,0.043,0.381,0.066
		c0.266,0.051,0.533,0.098,0.803,0.14c0.104,0.017,0.204,0.039,0.309,0.054c0.117,0.017,0.238,0.025,0.355,0.04
		c0.253,0.032,0.505,0.06,0.76,0.085c0.117,0.012,0.232,0.029,0.352,0.039c0.113,0.01,0.229,0.01,0.342,0.019
		c0.254,0.017,0.508,0.03,0.763,0.04c0.128,0.006,0.255,0.018,0.382,0.021c0.104,0.002,0.206-0.004,0.309-0.002
		c0.277,0.004,0.555,0.001,0.831-0.004c0.136-0.002,0.272,0.003,0.408-0.002c0.08-0.003,0.159-0.012,0.239-0.016
		c0.341-0.016,0.68-0.04,1.02-0.068c0.139-0.012,0.278-0.014,0.416-0.027c0.042-0.004,0.082-0.013,0.125-0.018
		c0.574-0.061,1.143-0.139,1.704-0.237c0.03-0.005,0.062-0.007,0.091-0.013c0.166-0.029,0.325-0.071,0.488-0.104
		c0.273-0.056,0.547-0.108,0.814-0.174c0.204-0.049,0.401-0.106,0.602-0.161c0.256-0.07,0.512-0.139,0.762-0.218
		c0.059-0.018,0.119-0.031,0.176-0.05c0.093-0.03,0.177-0.07,0.269-0.102c0.396-0.135,0.782-0.281,1.16-0.439
		c0.145-0.061,0.29-0.119,0.431-0.184c0.485-0.219,0.959-0.451,1.404-0.709l3.525-2.05l130.385-75.771l7.047-4.096
		c0.061-0.035,0.121-0.071,0.182-0.107c0.14-0.084,0.26-0.176,0.393-0.262c0.178-0.117,0.361-0.231,0.527-0.352
		c0.15-0.109,0.285-0.224,0.424-0.336c0.154-0.124,0.311-0.246,0.451-0.373c0.027-0.023,0.061-0.047,0.088-0.072
		c0.194-0.18,0.373-0.363,0.543-0.549c0.037-0.041,0.07-0.083,0.106-0.124c0.095-0.108,0.192-0.216,0.278-0.325
		c0.041-0.051,0.066-0.105,0.105-0.156c0.129-0.173,0.244-0.348,0.352-0.523c0.046-0.072,0.105-0.143,0.146-0.217
		c0.022-0.039,0.035-0.08,0.057-0.119c0.083-0.154,0.15-0.311,0.219-0.467c0.039-0.09,0.092-0.18,0.127-0.271
		c0.012-0.032,0.016-0.065,0.027-0.099c0.054-0.149,0.09-0.301,0.13-0.451c0.026-0.1,0.065-0.199,0.086-0.3
		c0.005-0.028,0.005-0.056,0.01-0.083c0.028-0.159,0.04-0.318,0.054-0.477c0.01-0.104,0.033-0.205,0.035-0.307
		c0.002-0.045,0.002-0.089,0.002-0.133c0.008-2.717,0.016-5.435,0.023-8.152C231.248,43.681,231.225,43.828,231.211,43.974z"/>
</g>
</svg>
