<?xml version="1.0" encoding="utf-8"?>
<!-- Generator: Adobe Illustrator 16.0.0, SVG Export Plug-In . SVG Version: 6.00 Build 0)  -->
<!DOCTYPE svg PUBLIC "-//W3C//DTD SVG 1.1//EN" "http://www.w3.org/Graphics/SVG/1.1/DTD/svg11.dtd">
<svg version="1.1" id="Layer_1" xmlns="http://www.w3.org/2000/svg" xmlns:xlink="http://www.w3.org/1999/xlink" x="0px" y="0px"
	 width="216px" height="134.719px" viewBox="0 0 216 134.719" enable-background="new 0 0 216 134.719" xml:space="preserve">
<g>
	<path fill="#8A8C8F" d="M0.037,42.941c0.013,0.148,0.024,0.297,0.051,0.445c0.022,0.119,0.057,0.238,0.088,0.357
		c0.038,0.141,0.072,0.283,0.121,0.424c0.041,0.113,0.094,0.227,0.143,0.34c0.064,0.146,0.129,0.293,0.208,0.439
		c0.057,0.105,0.123,0.209,0.187,0.312c0.101,0.162,0.208,0.326,0.328,0.486c0.113,0.152,0.229,0.305,0.361,0.453
		c0.034,0.039,0.064,0.078,0.1,0.115c0.18,0.199,0.378,0.393,0.589,0.582c0.132,0.119,0.279,0.232,0.422,0.348
		c0.129,0.105,0.253,0.211,0.393,0.312c0.158,0.115,0.333,0.225,0.502,0.334c0.174,0.115,0.339,0.232,0.527,0.34l6.582,3.824
		l121.785,70.775l3.295,1.914c0.416,0.242,0.857,0.459,1.311,0.664c0.131,0.059,0.266,0.111,0.398,0.168
		c0.354,0.148,0.717,0.287,1.09,0.412c0.137,0.047,0.271,0.098,0.41,0.141c0.236,0.074,0.48,0.141,0.723,0.207
		c0.182,0.049,0.363,0.102,0.549,0.146c0.252,0.062,0.51,0.113,0.766,0.164c0.18,0.035,0.357,0.076,0.541,0.109
		c0.525,0.094,1.061,0.166,1.6,0.223c0.158,0.016,0.316,0.025,0.477,0.039c0.324,0.027,0.646,0.051,0.975,0.066
		c0.199,0.008,0.398,0.012,0.6,0.016c0.262,0.004,0.525,0.006,0.787,0.002c0.209-0.002,0.414-0.008,0.621-0.016
		c0.248-0.01,0.494-0.021,0.74-0.041c0.211-0.014,0.418-0.031,0.629-0.051c0.238-0.023,0.477-0.051,0.715-0.08
		c0.209-0.025,0.416-0.055,0.625-0.088c0.252-0.039,0.502-0.084,0.752-0.131c0.191-0.037,0.381-0.074,0.57-0.115
		c0.297-0.064,0.592-0.139,0.881-0.217c0.16-0.041,0.32-0.08,0.477-0.125c0.514-0.15,1.014-0.318,1.498-0.508
		c0.238-0.092,0.471-0.193,0.703-0.297c0.117-0.053,0.242-0.102,0.359-0.156c0.352-0.168,0.695-0.344,1.023-0.533l56.318-32.518
		c2.752-1.588,4.127-3.684,4.121-5.779l0.021,7.615c0.006,2.092-1.369,4.189-4.121,5.779l-56.32,32.516
		c-0.326,0.189-0.67,0.367-1.021,0.533c-0.117,0.057-0.24,0.104-0.361,0.156c-0.205,0.092-0.406,0.188-0.619,0.27
		c-0.027,0.012-0.057,0.02-0.084,0.029c-0.482,0.188-0.982,0.355-1.496,0.506c-0.039,0.012-0.076,0.027-0.115,0.039
		c-0.119,0.035-0.246,0.057-0.365,0.088c-0.289,0.078-0.576,0.15-0.871,0.215c-0.076,0.016-0.148,0.039-0.227,0.055
		c-0.115,0.023-0.236,0.041-0.355,0.062c-0.248,0.047-0.498,0.09-0.75,0.131c-0.096,0.014-0.189,0.035-0.287,0.049
		c-0.109,0.016-0.223,0.023-0.332,0.037c-0.236,0.031-0.473,0.057-0.709,0.08c-0.111,0.01-0.219,0.027-0.33,0.037
		c-0.105,0.008-0.213,0.008-0.318,0.016c-0.236,0.016-0.475,0.029-0.713,0.039c-0.119,0.006-0.238,0.016-0.355,0.02
		c-0.098,0.002-0.193-0.004-0.289-0.002c-0.26,0.004-0.518,0-0.777-0.004c-0.125-0.002-0.254,0.004-0.381-0.002
		c-0.074-0.002-0.148-0.012-0.223-0.014c-0.318-0.016-0.635-0.039-0.953-0.064c-0.129-0.012-0.26-0.014-0.389-0.025
		c-0.039-0.004-0.076-0.012-0.117-0.018c-0.535-0.055-1.066-0.129-1.59-0.221c-0.029-0.004-0.059-0.006-0.086-0.012
		c-0.154-0.027-0.305-0.066-0.457-0.098c-0.254-0.053-0.51-0.102-0.76-0.162c-0.189-0.047-0.375-0.1-0.562-0.15
		c-0.238-0.066-0.477-0.131-0.711-0.203c-0.055-0.018-0.111-0.029-0.164-0.047c-0.086-0.029-0.164-0.066-0.25-0.096
		c-0.371-0.125-0.73-0.262-1.084-0.41c-0.135-0.057-0.271-0.111-0.402-0.172c-0.453-0.203-0.896-0.422-1.312-0.662l-3.293-1.914
		L10.661,59.67L4.08,55.846c-0.057-0.033-0.113-0.068-0.17-0.102c-0.13-0.078-0.242-0.164-0.367-0.244
		c-0.166-0.109-0.337-0.217-0.492-0.328c-0.141-0.104-0.267-0.209-0.396-0.314c-0.144-0.115-0.29-0.23-0.421-0.348
		c-0.026-0.023-0.057-0.045-0.082-0.068c-0.182-0.168-0.349-0.34-0.507-0.512c-0.035-0.039-0.065-0.078-0.1-0.117
		c-0.088-0.1-0.18-0.201-0.26-0.303c-0.039-0.049-0.062-0.1-0.099-0.146c-0.12-0.16-0.228-0.324-0.328-0.488
		c-0.043-0.068-0.099-0.133-0.137-0.203c-0.021-0.037-0.033-0.074-0.053-0.111c-0.078-0.145-0.141-0.289-0.204-0.436
		c-0.037-0.084-0.086-0.168-0.119-0.252c-0.011-0.031-0.015-0.062-0.026-0.094c-0.05-0.139-0.083-0.281-0.121-0.422
		c-0.024-0.092-0.061-0.186-0.08-0.279C0.113,51.053,0.113,51.027,0.109,51c-0.027-0.148-0.038-0.297-0.05-0.443
		c-0.009-0.098-0.031-0.191-0.033-0.287c-0.002-0.043-0.002-0.084-0.002-0.125c-0.007-2.537-0.015-5.076-0.022-7.613
		C0.002,42.668,0.024,42.805,0.037,42.941z"/>
	<g>
		<path fill="none" stroke="#777677" stroke-width="0.25" stroke-miterlimit="10" d="M215.998,92.193
			c-0.008-2.537-0.016-5.076-0.021-7.613c0.006,2.094-1.369,4.191-4.121,5.777l0.021,7.615
			C214.629,96.385,216.004,94.287,215.998,92.193z"/>
		<g>
			<path fill="#868787" stroke="#777677" stroke-width="0.25" stroke-miterlimit="10" d="M25.28,30.294
				c-0.728,0.421-0.731,1.109-0.009,1.529l0.664,0.386c0.722,0.421,1.912,0.421,2.639,0l27.169-15.687
				c0.728-0.42,0.732-1.109,0.009-1.529l-0.664-0.386c-0.723-0.421-1.912-0.421-2.64,0L25.28,30.294z"/>
		</g>
		<path fill="#FFFFFF" stroke="#777677" stroke-width="0.25" stroke-miterlimit="10" d="M4.058,46.363l6.582,3.824l121.785,70.773
			l3.295,1.914c5.432,3.158,14.348,3.158,19.818,0l56.318-32.518c5.469-3.154,5.498-8.318,0.064-11.477l-3.293-1.916L86.843,6.193
			L80.26,2.367c-5.434-3.157-14.35-3.157-19.818,0L4.122,34.884C-1.346,38.042-1.375,43.207,4.058,46.363z M55.743,16.522
			L28.574,32.209c-0.728,0.421-1.917,0.421-2.639,0l-0.664-0.386c-0.722-0.42-0.719-1.108,0.009-1.529l27.169-15.687
			c0.728-0.421,1.917-0.421,2.64,0l0.664,0.386C56.475,15.413,56.471,16.102,55.743,16.522z M13.956,48.273L83.526,8.106
			l121.784,70.774l-17.912,10.342l-51.66,29.824L13.956,48.273z"/>
		
			<linearGradient id="SVGID_1_" gradientUnits="userSpaceOnUse" x1="-89.874" y1="86.7568" x2="126.1221" y2="86.7568" gradientTransform="matrix(-1 0 0 1 126.124 0)">
			<stop  offset="0" style="stop-color:#8A8A8A"/>
			<stop  offset="0.3169" style="stop-color:#8A8A8A"/>
			<stop  offset="0.3551" style="stop-color:#CCCCCC"/>
			<stop  offset="0.5882" style="stop-color:#D4D4D4"/>
			<stop  offset="0.912" style="stop-color:#D9D9D9"/>
			<stop  offset="0.9535" style="stop-color:#D7D7D7"/>
			<stop  offset="0.9684" style="stop-color:#D0D0D0"/>
			<stop  offset="0.9791" style="stop-color:#C4C4C4"/>
			<stop  offset="0.9877" style="stop-color:#B3B3B3"/>
			<stop  offset="0.995" style="stop-color:#9E9E9E"/>
			<stop  offset="1" style="stop-color:#8A8A8A"/>
		</linearGradient>
		<path fill="url(#SVGID_1_)" stroke="#777677" stroke-width="0.25" stroke-miterlimit="10" d="M0.037,41.074
			c0.013,0.148,0.024,0.297,0.051,0.445c0.022,0.119,0.057,0.238,0.088,0.355c0.038,0.143,0.072,0.285,0.121,0.424
			c0.041,0.113,0.094,0.227,0.143,0.34c0.064,0.148,0.129,0.295,0.208,0.441c0.057,0.105,0.123,0.209,0.187,0.312
			c0.101,0.164,0.208,0.326,0.328,0.486c0.113,0.152,0.229,0.305,0.361,0.453c0.034,0.039,0.064,0.078,0.1,0.115
			c0.18,0.199,0.378,0.391,0.589,0.58c0.132,0.119,0.279,0.234,0.422,0.35c0.129,0.104,0.253,0.209,0.393,0.311
			c0.158,0.115,0.333,0.227,0.502,0.336c0.174,0.113,0.339,0.23,0.527,0.34l6.582,3.824l121.785,70.773l3.295,1.914
			c0.416,0.242,0.857,0.459,1.311,0.664c0.131,0.059,0.266,0.113,0.398,0.17c0.354,0.146,0.717,0.285,1.09,0.412
			c0.137,0.047,0.271,0.098,0.41,0.141c0.236,0.074,0.48,0.139,0.723,0.205c0.182,0.051,0.363,0.104,0.549,0.148
			c0.252,0.061,0.51,0.111,0.766,0.162c0.18,0.037,0.357,0.078,0.541,0.109c0.525,0.094,1.061,0.166,1.6,0.223
			c0.158,0.018,0.316,0.027,0.477,0.041c0.324,0.025,0.646,0.051,0.975,0.064c0.199,0.008,0.398,0.012,0.6,0.016
			c0.262,0.006,0.525,0.008,0.787,0.004c0.209-0.002,0.414-0.008,0.621-0.018c0.248-0.008,0.494-0.021,0.74-0.039
			c0.211-0.016,0.418-0.031,0.629-0.051c0.238-0.023,0.477-0.051,0.715-0.082c0.209-0.025,0.416-0.055,0.625-0.086
			c0.252-0.041,0.502-0.084,0.752-0.131c0.191-0.037,0.381-0.074,0.57-0.115c0.297-0.066,0.592-0.139,0.881-0.217
			c0.16-0.043,0.32-0.082,0.477-0.127c0.514-0.15,1.014-0.316,1.498-0.506c0.238-0.094,0.471-0.195,0.703-0.297
			c0.117-0.053,0.242-0.102,0.359-0.158c0.352-0.166,0.695-0.344,1.023-0.533l56.318-32.518c2.752-1.586,4.127-3.684,4.121-5.777
			l0.021,7.613c0.006,2.094-1.369,4.191-4.121,5.779l-56.32,32.518c-0.326,0.189-0.67,0.365-1.021,0.531
			c-0.117,0.057-0.24,0.105-0.361,0.158c-0.205,0.092-0.406,0.186-0.619,0.27c-0.027,0.012-0.057,0.018-0.084,0.027
			c-0.482,0.189-0.982,0.357-1.496,0.506c-0.039,0.012-0.076,0.029-0.115,0.039c-0.119,0.035-0.246,0.059-0.365,0.09
			c-0.289,0.076-0.576,0.15-0.871,0.213c-0.076,0.018-0.148,0.039-0.227,0.055c-0.115,0.025-0.236,0.041-0.355,0.062
			c-0.248,0.049-0.498,0.092-0.75,0.131c-0.096,0.016-0.189,0.037-0.287,0.051c-0.109,0.014-0.223,0.023-0.332,0.037
			c-0.236,0.029-0.473,0.055-0.709,0.078c-0.111,0.012-0.219,0.027-0.33,0.037c-0.105,0.01-0.213,0.01-0.318,0.018
			c-0.236,0.016-0.475,0.027-0.713,0.037c-0.119,0.006-0.238,0.018-0.355,0.02c-0.098,0.002-0.193-0.002-0.289-0.002
			c-0.26,0.004-0.518,0.002-0.777-0.002c-0.125-0.002-0.254,0.002-0.381-0.002c-0.074-0.004-0.148-0.012-0.223-0.016
			c-0.318-0.014-0.635-0.037-0.953-0.062c-0.129-0.012-0.26-0.014-0.389-0.027c-0.039-0.002-0.076-0.012-0.117-0.016
			c-0.535-0.057-1.066-0.129-1.59-0.221c-0.029-0.006-0.059-0.008-0.086-0.012c-0.154-0.029-0.305-0.068-0.457-0.1
			c-0.254-0.051-0.51-0.1-0.76-0.162c-0.189-0.045-0.375-0.1-0.562-0.15c-0.238-0.064-0.477-0.129-0.711-0.203
			c-0.055-0.016-0.111-0.029-0.164-0.047c-0.086-0.027-0.164-0.064-0.25-0.094c-0.371-0.127-0.73-0.264-1.084-0.41
			c-0.135-0.057-0.271-0.111-0.402-0.172c-0.453-0.205-0.896-0.422-1.312-0.662l-3.293-1.914L10.661,57.801L4.08,53.977
			c-0.057-0.033-0.113-0.066-0.17-0.1c-0.13-0.08-0.242-0.164-0.367-0.246c-0.166-0.109-0.337-0.215-0.492-0.328
			c-0.141-0.102-0.267-0.209-0.396-0.312c-0.144-0.117-0.29-0.23-0.421-0.35c-0.026-0.021-0.057-0.043-0.082-0.066
			c-0.182-0.168-0.349-0.34-0.507-0.514c-0.035-0.037-0.065-0.076-0.1-0.115c-0.088-0.102-0.18-0.201-0.26-0.305
			c-0.039-0.047-0.062-0.098-0.099-0.145c-0.12-0.162-0.228-0.326-0.328-0.49c-0.043-0.066-0.099-0.133-0.137-0.201
			c-0.021-0.037-0.033-0.076-0.053-0.111c-0.078-0.145-0.141-0.291-0.204-0.438c-0.037-0.082-0.086-0.168-0.119-0.252
			c-0.011-0.029-0.015-0.061-0.026-0.092c-0.05-0.141-0.083-0.281-0.121-0.422c-0.024-0.094-0.061-0.186-0.08-0.279
			c-0.005-0.027-0.005-0.053-0.009-0.078c-0.027-0.148-0.038-0.297-0.05-0.445c-0.009-0.096-0.031-0.191-0.033-0.287
			c-0.002-0.041-0.002-0.082-0.002-0.123c-0.007-2.537-0.015-5.076-0.022-7.613C0.002,40.801,0.024,40.938,0.037,41.074z"/>
	</g>
	<g>
		<path fill="#868787" stroke="#777677" stroke-width="0.25" stroke-miterlimit="10" d="M57.76,11.354
			c-0.918,0.53-0.917,1.388-0.01,1.915c0.906,0.526,2.387,0.529,3.305,0c0.912-0.527,0.911-1.385,0.006-1.912
			C60.154,10.83,58.673,10.826,57.76,11.354z"/>
	</g>
</g>
</svg>
