<?xml version="1.0" encoding="utf-8"?>
<!-- Generator: Adobe Illustrator 16.0.0, SVG Export Plug-In . SVG Version: 6.00 Build 0)  -->
<!DOCTYPE svg PUBLIC "-//W3C//DTD SVG 1.1//EN" "http://www.w3.org/Graphics/SVG/1.1/DTD/svg11.dtd">
<svg version="1.1" id="Layer_1" xmlns="http://www.w3.org/2000/svg" xmlns:xlink="http://www.w3.org/1999/xlink" x="0px" y="0px"
	 width="36px" height="36px" viewBox="0 0 36 36" enable-background="new 0 0 36 36" xml:space="preserve">
<g>
	<path fill="#363D45" d="M27.674,6.891c1.894,0,3.432-1.545,3.432-3.445C31.105,1.545,29.567,0,27.674,0
		c-1.893,0-3.431,1.552-3.431,3.445S25.781,6.891,27.674,6.891L27.674,6.891z M27.674,1.782c0.91,0,1.656,0.747,1.656,1.671
		s-0.738,1.671-1.656,1.671c-0.916,0-1.656-0.754-1.656-1.678C26.018,2.521,26.758,1.782,27.674,1.782L27.674,1.782z M27.674,1.782"
		/>
	<path fill="#363D45" d="M7.445,29.108c-1.893,0-3.431,1.546-3.431,3.446C4.014,34.454,5.552,36,7.445,36
		c1.893,0,3.43-1.546,3.43-3.445C10.875,30.654,9.33,29.108,7.445,29.108L7.445,29.108z M7.445,34.226
		c-0.91,0-1.657-0.747-1.657-1.671c0-0.917,0.74-1.671,1.657-1.671c0.917,0,1.656,0.746,1.656,1.671
		C9.093,33.471,8.354,34.226,7.445,34.226L7.445,34.226z M7.445,34.226"/>
	<path fill="#363D45" d="M15.925,15.268c0.17,0.17,0.399,0.259,0.628,0.259c0.229,0,0.451-0.089,0.628-0.259
		c0.347-0.347,0.347-0.91,0-1.257l-1.849-1.848l1.849-1.849c0.347-0.348,0.347-0.909,0-1.257c-0.348-0.347-0.91-0.347-1.257,0
		l-1.849,1.849l-1.849-1.849c-0.347-0.347-0.909-0.347-1.257,0c-0.348,0.348-0.348,0.91,0,1.257l1.849,1.849l-1.849,1.848
		c-0.348,0.347-0.348,0.91,0,1.257c0.17,0.17,0.399,0.259,0.628,0.259c0.229,0,0.452-0.089,0.628-0.259l1.849-1.849L15.925,15.268z
		 M15.925,15.268"/>
	<path fill="#363D45" d="M30.779,23.29c-0.347-0.348-0.909-0.348-1.257,0l-1.849,1.849l-1.849-1.849
		c-0.347-0.348-0.908-0.348-1.256,0s-0.348,0.909,0,1.257l1.848,1.849l-1.848,1.849c-0.348,0.348-0.348,0.909,0,1.257
		c0.17,0.17,0.398,0.259,0.628,0.259s0.451-0.089,0.628-0.259l1.849-1.849l1.849,1.849c0.17,0.17,0.399,0.259,0.629,0.259
		s0.451-0.089,0.628-0.259c0.348-0.348,0.348-0.909,0-1.257l-1.848-1.849l1.848-1.849C31.127,24.192,31.127,23.638,30.779,23.29
		L30.779,23.29z M30.779,23.29"/>
	<path fill="#363D45" d="M20.266,27.867c-0.348-0.348-0.909-0.348-1.257,0l-1.849,1.848l-1.849-1.848
		c-0.347-0.348-0.909-0.348-1.256,0c-0.348,0.347-0.348,0.909,0,1.257l1.848,1.849l-1.848,1.849c-0.348,0.347-0.348,0.908,0,1.256
		c0.17,0.17,0.399,0.259,0.628,0.259s0.451-0.089,0.628-0.259l1.849-1.848l1.849,1.848c0.17,0.17,0.398,0.259,0.628,0.259
		c0.23,0,0.451-0.089,0.629-0.259c0.348-0.348,0.348-0.909,0-1.256l-1.849-1.849l1.849-1.849
		C20.605,28.776,20.605,28.214,20.266,27.867L20.266,27.867z M20.266,27.867"/>
	<path fill="#363D45" d="M14.52,21.197c0.488,0,0.888-0.398,0.888-0.887s-0.399-0.887-0.888-0.887c-0.488,0-0.887,0.398-0.887,0.887
		S14.025,21.197,14.52,21.197L14.52,21.197z M14.52,21.197"/>
	<path fill="#363D45" d="M7.947,23.815c0.148,0.096,0.318,0.148,0.488,0.148c0.288,0,0.569-0.141,0.739-0.4
		c0.266-0.406,0.155-0.961-0.251-1.227c-0.407-0.267-0.961-0.156-1.228,0.251C7.422,22.994,7.533,23.549,7.947,23.815L7.947,23.815z
		 M7.947,23.815"/>
	<path fill="#363D45" d="M10.72,20.022c-0.451,0.199-0.65,0.725-0.451,1.168c0.148,0.333,0.473,0.524,0.813,0.524
		c0.119,0,0.244-0.021,0.362-0.073c0.451-0.199,0.651-0.725,0.451-1.169C11.688,20.022,11.164,19.822,10.72,20.022L10.72,20.022z
		 M10.72,20.022"/>
	<path fill="#363D45" d="M18.92,20.311c0,0.49-0.397,0.887-0.888,0.887c-0.49,0-0.887-0.396-0.887-0.887s0.397-0.887,0.887-0.887
		C18.522,19.424,18.92,19.82,18.92,20.311L18.92,20.311z M18.92,20.311"/>
	<path fill="#363D45" d="M7.445,27.282c0.236,0,0.465-0.096,0.628-0.259c0.163-0.162,0.259-0.392,0.259-0.628
		c0-0.237-0.096-0.466-0.259-0.628c-0.163-0.163-0.392-0.259-0.628-0.259c-0.237,0-0.466,0.096-0.629,0.259
		c-0.163,0.162-0.259,0.391-0.259,0.628c0,0.236,0.096,0.466,0.259,0.628C6.979,27.187,7.208,27.282,7.445,27.282L7.445,27.282z
		 M7.445,27.282"/>
	<path fill="#363D45" d="M31.726,12.584l-3.43-3.43c-0.348-0.348-0.91-0.348-1.258,0l-3.431,3.43c-0.348,0.348-0.348,0.91,0,1.257
		c0.348,0.347,0.909,0.347,1.258,0l1.914-1.916v2.292c0,2.869-2.352,5.198-5.241,5.198c-0.488,0-0.889,0.399-0.889,0.887
		c0,0.488,0.4,0.888,0.889,0.888c3.866,0,7.017-3.127,7.017-6.972v-2.3l1.914,1.916c0.17,0.17,0.399,0.259,0.629,0.259
		s0.451-0.089,0.628-0.259C32.073,13.494,32.073,12.932,31.726,12.584L31.726,12.584z M31.726,12.584"/>
</g>
</svg>
